<mxfile host="app.diagrams.net" modified="2021-11-22T14:25:50.343Z" agent="5.0 (Windows NT 10.0; Win64; x64) AppleWebKit/537.36 (KHTML, like Gecko) Chrome/96.0.4664.45 Safari/537.36" etag="HTF3HrH1A5GKXuWFYp_K" version="15.8.3" type="github">
  <diagram id="a6O793tz-z5NZXW4OeX4" name="Page-1">
    <mxGraphModel dx="1038" dy="579" grid="1" gridSize="10" guides="1" tooltips="1" connect="1" arrows="1" fold="1" page="1" pageScale="1" pageWidth="850" pageHeight="1100" math="0" shadow="0">
      <root>
        <mxCell id="0" />
        <mxCell id="1" parent="0" />
        <mxCell id="e_SzH8eJE_AfBlzxC5Ra-1" value="Actor" style="shape=umlActor;verticalLabelPosition=bottom;verticalAlign=top;html=1;outlineConnect=0;" parent="1" vertex="1">
          <mxGeometry x="110" y="280" width="30" height="60" as="geometry" />
        </mxCell>
        <mxCell id="e_SzH8eJE_AfBlzxC5Ra-3" value="watch" style="ellipse;whiteSpace=wrap;html=1;" parent="1" vertex="1">
          <mxGeometry x="200" y="30" width="240" height="60" as="geometry" />
        </mxCell>
        <mxCell id="e_SzH8eJE_AfBlzxC5Ra-4" value="play" style="ellipse;whiteSpace=wrap;html=1;" parent="1" vertex="1">
          <mxGeometry x="200" y="110" width="240" height="50" as="geometry" />
        </mxCell>
        <mxCell id="e_SzH8eJE_AfBlzxC5Ra-5" value="check programs" style="ellipse;whiteSpace=wrap;html=1;" parent="1" vertex="1">
          <mxGeometry x="200" y="190" width="240" height="50" as="geometry" />
        </mxCell>
        <mxCell id="e_SzH8eJE_AfBlzxC5Ra-6" value="resize" style="ellipse;whiteSpace=wrap;html=1;" parent="1" vertex="1">
          <mxGeometry x="185" y="270" width="240" height="60" as="geometry" />
        </mxCell>
        <mxCell id="e_SzH8eJE_AfBlzxC5Ra-7" value="load &amp;amp; save" style="ellipse;whiteSpace=wrap;html=1;" parent="1" vertex="1">
          <mxGeometry x="200" y="360" width="240" height="70" as="geometry" />
        </mxCell>
        <mxCell id="e_SzH8eJE_AfBlzxC5Ra-8" value="adjust" style="ellipse;whiteSpace=wrap;html=1;" parent="1" vertex="1">
          <mxGeometry x="200" y="450" width="240" height="60" as="geometry" />
        </mxCell>
        <mxCell id="e_SzH8eJE_AfBlzxC5Ra-9" value="Actor" style="shape=umlActor;verticalLabelPosition=bottom;verticalAlign=top;html=1;outlineConnect=0;" parent="1" vertex="1">
          <mxGeometry x="800" y="290" width="30" height="60" as="geometry" />
        </mxCell>
        <mxCell id="e_SzH8eJE_AfBlzxC5Ra-10" value="extend" style="ellipse;whiteSpace=wrap;html=1;" parent="1" vertex="1">
          <mxGeometry x="520" y="30" width="260" height="80" as="geometry" />
        </mxCell>
        <mxCell id="e_SzH8eJE_AfBlzxC5Ra-11" value="test" style="ellipse;whiteSpace=wrap;html=1;" parent="1" vertex="1">
          <mxGeometry x="520" y="440" width="270" height="80" as="geometry" />
        </mxCell>
        <mxCell id="e_SzH8eJE_AfBlzxC5Ra-12" value="" style="endArrow=classic;startArrow=classic;html=1;rounded=0;entryX=0.002;entryY=0.39;entryDx=0;entryDy=0;entryPerimeter=0;" parent="1" target="e_SzH8eJE_AfBlzxC5Ra-3" edge="1">
          <mxGeometry width="50" height="50" relative="1" as="geometry">
            <mxPoint x="130" y="260" as="sourcePoint" />
            <mxPoint x="180" y="210" as="targetPoint" />
          </mxGeometry>
        </mxCell>
        <mxCell id="e_SzH8eJE_AfBlzxC5Ra-16" value="" style="endArrow=classic;startArrow=classic;html=1;rounded=0;entryX=0;entryY=0.5;entryDx=0;entryDy=0;" parent="1" target="e_SzH8eJE_AfBlzxC5Ra-4" edge="1">
          <mxGeometry width="50" height="50" relative="1" as="geometry">
            <mxPoint x="130" y="260" as="sourcePoint" />
            <mxPoint x="180" y="210" as="targetPoint" />
          </mxGeometry>
        </mxCell>
        <mxCell id="e_SzH8eJE_AfBlzxC5Ra-17" value="" style="endArrow=classic;startArrow=classic;html=1;rounded=0;entryX=0;entryY=0.5;entryDx=0;entryDy=0;" parent="1" target="e_SzH8eJE_AfBlzxC5Ra-5" edge="1">
          <mxGeometry width="50" height="50" relative="1" as="geometry">
            <mxPoint x="130" y="260" as="sourcePoint" />
            <mxPoint x="180" y="210" as="targetPoint" />
          </mxGeometry>
        </mxCell>
        <mxCell id="e_SzH8eJE_AfBlzxC5Ra-19" value="" style="endArrow=classic;startArrow=classic;html=1;rounded=0;entryX=0;entryY=0.5;entryDx=0;entryDy=0;" parent="1" target="e_SzH8eJE_AfBlzxC5Ra-6" edge="1">
          <mxGeometry width="50" height="50" relative="1" as="geometry">
            <mxPoint x="130" y="260" as="sourcePoint" />
            <mxPoint x="180" y="210" as="targetPoint" />
          </mxGeometry>
        </mxCell>
        <mxCell id="e_SzH8eJE_AfBlzxC5Ra-20" value="" style="endArrow=classic;startArrow=classic;html=1;rounded=0;entryX=0;entryY=0.5;entryDx=0;entryDy=0;" parent="1" target="e_SzH8eJE_AfBlzxC5Ra-7" edge="1">
          <mxGeometry width="50" height="50" relative="1" as="geometry">
            <mxPoint x="130" y="260" as="sourcePoint" />
            <mxPoint x="180" y="210" as="targetPoint" />
          </mxGeometry>
        </mxCell>
        <mxCell id="e_SzH8eJE_AfBlzxC5Ra-22" value="" style="endArrow=classic;startArrow=classic;html=1;rounded=0;entryX=0;entryY=0.333;entryDx=0;entryDy=0;entryPerimeter=0;" parent="1" target="e_SzH8eJE_AfBlzxC5Ra-8" edge="1">
          <mxGeometry width="50" height="50" relative="1" as="geometry">
            <mxPoint x="130" y="260" as="sourcePoint" />
            <mxPoint x="180" y="210" as="targetPoint" />
          </mxGeometry>
        </mxCell>
        <mxCell id="e_SzH8eJE_AfBlzxC5Ra-23" value="" style="endArrow=classic;startArrow=classic;html=1;rounded=0;entryX=0.777;entryY=0.983;entryDx=0;entryDy=0;entryPerimeter=0;" parent="1" target="e_SzH8eJE_AfBlzxC5Ra-10" edge="1">
          <mxGeometry width="50" height="50" relative="1" as="geometry">
            <mxPoint x="790" y="280" as="sourcePoint" />
            <mxPoint x="840" y="230" as="targetPoint" />
          </mxGeometry>
        </mxCell>
        <mxCell id="e_SzH8eJE_AfBlzxC5Ra-24" value="" style="endArrow=classic;startArrow=classic;html=1;rounded=0;entryX=0.741;entryY=0;entryDx=0;entryDy=0;entryPerimeter=0;" parent="1" target="e_SzH8eJE_AfBlzxC5Ra-11" edge="1">
          <mxGeometry width="50" height="50" relative="1" as="geometry">
            <mxPoint x="790" y="280" as="sourcePoint" />
            <mxPoint x="840" y="230" as="targetPoint" />
          </mxGeometry>
        </mxCell>
      </root>
    </mxGraphModel>
  </diagram>
</mxfile>
